<svg fill="#FFFFFF" xmlns="http://www.w3.org/2000/svg"  viewBox="0 0 50 50" width="50px" height="50px"><path d="M 25.875 3.40625 C 22.195313 3.472656 19.507813 4.570313 17.875 6.71875 C 15.941406 9.265625 15.589844 13.144531 16.8125 18.21875 C 16.363281 18.769531 16.023438 19.605469 16.15625 20.71875 C 16.417969 22.914063 17.296875 23.824219 18 24.1875 C 18.339844 25.921875 19.296875 27.863281 20.21875 28.78125 L 20.21875 29.25 C 20.222656 29.910156 20.210938 30.535156 20.1875 31.1875 C 20.710938 32.28125 22.371094 34 26 34 C 29.65625 34 31.359375 32.246094 31.84375 31.03125 C 31.824219 30.429688 31.839844 29.859375 31.84375 29.25 L 31.84375 28.78125 C 32.738281 27.867188 33.660156 25.921875 34 24.1875 C 34.722656 23.828125 35.578125 22.921875 35.84375 20.71875 C 35.976563 19.628906 35.65625 18.800781 35.21875 18.25 C 35.800781 16.269531 36.988281 11.113281 34.9375 7.8125 C 34.078125 6.429688 32.777344 5.558594 31.0625 5.21875 C 30.117188 4.027344 28.304688 3.40625 25.875 3.40625 Z M 32.75 33.34375 C 31.488281 34.800781 29.257813 36 26 36 C 22.683594 36 20.515625 34.78125 19.28125 33.375 C 18.328125 34.175781 16.804688 34.777344 15.125 35.4375 C 11.21875 36.972656 6.363281 38.871094 6 44.9375 L 5.9375 46 L 46.0625 46 L 46 44.9375 C 45.636719 38.871094 40.800781 36.972656 36.90625 35.4375 C 35.21875 34.769531 33.699219 34.15625 32.75 33.34375 Z"/></svg>